<svg xmlns="http://www.w3.org/2000/svg" width="504.6" height="258.93" viewBox="0 0 504.6 258.93"><g transform="translate(189.2987142857143 12)"><path d="M104.26 23.81A30 30 0 1 0 114.07 74.29" fill="none" stroke="#f06511" stroke-width="17" stroke-linecap="round"/><rect x="10" y="6" width="17" height="88" rx="1.5" fill="#d4d6db"/><rect x="62" y="6" width="17" height="88" rx="1.5" fill="#d4d6db"/><path d="M14.79 69.41L16.68 69.2L18.58 68.81L20.5 68.29L22.43 67.68L24.39 66.97L26.36 66.18L28.34 65.31L30.34 64.38L32.35 63.38L34.38 62.33L36.41 61.22L38.46 60.07L40.51 58.88L42.58 57.66L44.65 56.41L46.73 55.13L48.81 53.83L50.89 52.52L52.97 51.21L55.05 49.89L57.13 48.57L59.2 47.27L61.27 45.97L63.32 44.7L65.37 43.44L67.4 42.22L69.42 41.04L71.41 39.89L73.39 38.79L75.34 37.74L77.27 36.74L79.16 35.81L81.02 34.94L82.83 34.14L84.61 33.42L86.33 32.79L88 32.23L89.62 31.76L91.16 31.38L92.63 31.1L94.03 30.9L95.34 30.8L96.55 30.78L97.68 30.84L98.72 30.98L99.67 31.19L100.54 31.46L101.35 31.8L107.17 15.82L104.88 15.19L102.59 14.76L100.29 14.53L98.01 14.48L95.76 14.59L93.53 14.85L91.33 15.25L89.16 15.76L87.01 16.39L84.88 17.12L82.77 17.93L80.68 18.83L78.6 19.8L76.52 20.85L74.46 21.95L72.4 23.12L70.35 24.34L68.3 25.6L66.25 26.91L64.22 28.26L62.18 29.64L60.15 31.05L58.13 32.49L56.11 33.94L54.1 35.41L52.1 36.89L50.11 38.38L48.13 39.86L46.15 41.34L44.2 42.81L42.25 44.27L40.33 45.71L38.42 47.12L36.53 48.51L34.66 49.86L32.81 51.18L30.99 52.45L29.2 53.68L27.43 54.85L25.7 55.97L23.99 57.03L22.33 58.02L20.7 58.94L19.11 59.8L17.56 60.59L16.06 61.3L14.61 61.95L13.21 62.59Z" fill="#f06511"/><path d="M104.26 23.81A30 30 0 0 1 114.07 29.71" fill="none" stroke="#f06511" stroke-width="17" stroke-linecap="round"/></g><path d="M69.793 173.800L56.879 173.800L56.879 118L69.793 118L69.793 173.800ZM31.530 173.800L18.616 173.800L18.616 118L31.530 118L31.530 173.800ZM57.836 150.922L30.573 150.922L30.573 140.001L57.836 140.001L57.836 150.922ZM101.041 174.438L101.041 174.438Q93.707 174.438 88.167 171.568Q82.627 168.698 79.598 163.716Q76.569 158.734 76.569 152.357L76.569 152.357Q76.569 145.900 79.558 140.918Q82.547 135.936 87.729 133.106Q92.910 130.276 99.447 130.276L99.447 130.276Q105.744 130.276 110.806 132.946Q115.868 135.617 118.817 140.599Q121.767 145.581 121.767 152.516L121.767 152.516Q121.767 153.234 121.687 154.150Q121.607 155.067 121.527 155.864L121.527 155.864L86.692 155.864L86.692 148.610L114.991 148.610L110.208 150.763Q110.208 147.415 108.853 144.943Q107.498 142.472 105.106 141.077Q102.715 139.682 99.526 139.682L99.526 139.682Q96.338 139.682 93.906 141.077Q91.475 142.472 90.120 144.983Q88.765 147.494 88.765 150.922L88.765 150.922L88.765 152.835Q88.765 156.343 90.319 159.013Q91.874 161.683 94.704 163.078Q97.533 164.473 101.360 164.473L101.360 164.473Q104.787 164.473 107.378 163.437Q109.969 162.401 112.121 160.328L112.121 160.328L118.737 167.503Q115.788 170.851 111.324 172.644Q106.860 174.438 101.041 174.438ZM148.949 174.438L148.949 174.438Q141.615 174.438 136.075 171.568Q130.535 168.698 127.506 163.716Q124.477 158.734 124.477 152.357L124.477 152.357Q124.477 145.900 127.466 140.918Q130.455 135.936 135.637 133.106Q140.818 130.276 147.355 130.276L147.355 130.276Q153.652 130.276 158.714 132.946Q163.776 135.617 166.725 140.599Q169.675 145.581 169.675 152.516L169.675 152.516Q169.675 153.234 169.595 154.150Q169.515 155.067 169.436 155.864L169.436 155.864L134.601 155.864L134.601 148.610L162.899 148.610L158.116 150.763Q158.116 147.415 156.761 144.943Q155.406 142.472 153.015 141.077Q150.623 139.682 147.435 139.682L147.435 139.682Q144.246 139.682 141.815 141.077Q139.383 142.472 138.028 144.983Q136.673 147.494 136.673 150.922L136.673 150.922L136.673 152.835Q136.673 156.343 138.228 159.013Q139.782 161.683 142.612 163.078Q145.442 164.473 149.268 164.473L149.268 164.473Q152.696 164.473 155.286 163.437Q157.877 162.401 160.029 160.328L160.029 160.328L166.646 167.503Q163.696 170.851 159.232 172.644Q154.768 174.438 148.949 174.438Z" fill="#d4d6db"/><path d="M196.299 174.438L196.299 174.438Q189.364 174.438 183.944 171.608Q178.523 168.778 175.454 163.756Q172.385 158.734 172.385 152.357L172.385 152.357Q172.385 145.900 175.454 140.918Q178.523 135.936 183.944 133.106Q189.364 130.276 196.299 130.276L196.299 130.276Q203.075 130.276 208.097 133.106Q213.119 135.936 215.511 141.197L215.511 141.197L205.865 146.378Q204.191 143.349 201.680 141.914Q199.169 140.479 196.220 140.479L196.220 140.479Q193.031 140.479 190.480 141.914Q187.929 143.349 186.455 145.980Q184.980 148.610 184.980 152.357L184.980 152.357Q184.980 156.103 186.455 158.734Q187.929 161.365 190.480 162.799Q193.031 164.234 196.220 164.234L196.220 164.234Q199.169 164.234 201.680 162.839Q204.191 161.444 205.865 158.335L205.865 158.335L215.511 163.597Q213.119 168.778 208.097 171.608Q203.075 174.438 196.299 174.438ZM258.237 173.800L246.599 173.800L246.599 165.430L245.802 163.597L245.802 148.610Q245.802 144.625 243.371 142.393Q240.939 140.161 235.917 140.161L235.917 140.161Q232.490 140.161 229.182 141.237Q225.873 142.313 223.562 144.146L223.562 144.146L219.098 135.457Q222.605 132.986 227.547 131.631Q232.490 130.276 237.591 130.276L237.591 130.276Q247.396 130.276 252.817 134.899Q258.237 139.523 258.237 149.328L258.237 149.328L258.237 173.800ZM233.526 174.438L233.526 174.438Q228.504 174.438 224.917 172.724Q221.330 171.010 219.417 168.061Q217.503 165.111 217.503 161.444L217.503 161.444Q217.503 157.618 219.377 154.748Q221.250 151.879 225.315 150.244Q229.381 148.610 235.917 148.610L235.917 148.610L247.317 148.610L247.317 155.864L237.273 155.864Q232.888 155.864 231.254 157.299Q229.620 158.734 229.620 160.886L229.620 160.886Q229.620 163.278 231.493 164.673Q233.367 166.068 236.635 166.068L236.635 166.068Q239.744 166.068 242.215 164.593Q244.686 163.118 245.802 160.249L245.802 160.249L247.715 165.988Q246.360 170.133 242.773 172.285Q239.186 174.438 233.526 174.438Z" fill="#f06511"/><path d="M298.095 173.800L290.442 173.800L290.442 118L296.979 118L322.009 160.169L318.501 160.169L343.213 118L349.749 118L349.829 173.800L342.177 173.800L342.097 130.037L343.930 130.037L321.929 167.024L318.262 167.024L296.102 130.037L298.095 130.037L298.095 173.800ZM381.157 174.278L381.157 174.278Q374.780 174.278 369.837 171.488Q364.895 168.698 362.025 163.796Q359.156 158.893 359.156 152.676L359.156 152.676Q359.156 146.378 362.025 141.516Q364.895 136.653 369.837 133.903Q374.780 131.153 381.157 131.153L381.157 131.153Q387.454 131.153 392.436 133.903Q397.419 136.653 400.248 141.476Q403.078 146.299 403.078 152.676L403.078 152.676Q403.078 158.973 400.248 163.836Q397.419 168.698 392.436 171.488Q387.454 174.278 381.157 174.278ZM381.157 167.582L381.157 167.582Q385.222 167.582 388.451 165.749Q391.679 163.915 393.513 160.528Q395.346 157.140 395.346 152.676L395.346 152.676Q395.346 148.132 393.513 144.824Q391.679 141.516 388.451 139.682Q385.222 137.849 381.157 137.849L381.157 137.849Q377.091 137.849 373.903 139.682Q370.714 141.516 368.801 144.824Q366.888 148.132 366.888 152.676L366.888 152.676Q366.888 157.140 368.801 160.528Q370.714 163.915 373.903 165.749Q377.091 167.582 381.157 167.582ZM430.181 173.800L422.369 173.800L403.875 131.551L411.847 131.551L428.268 169.814L424.442 169.814L441.182 131.551L448.675 131.551L430.181 173.800ZM472.270 174.278L472.270 174.278Q465.495 174.278 460.353 171.488Q455.211 168.698 452.382 163.836Q449.552 158.973 449.552 152.676L449.552 152.676Q449.552 146.378 452.302 141.516Q455.052 136.653 459.875 133.903Q464.697 131.153 470.756 131.153L470.756 131.153Q476.894 131.153 481.597 133.863Q486.300 136.573 488.970 141.476Q491.641 146.378 491.641 152.915L491.641 152.915Q491.641 153.393 491.601 154.031Q491.561 154.669 491.481 155.227L491.481 155.227L455.530 155.227L455.530 149.726L487.496 149.726L484.387 151.639Q484.467 147.574 482.713 144.385Q480.959 141.197 477.890 139.403Q474.821 137.610 470.756 137.610L470.756 137.610Q466.770 137.610 463.661 139.403Q460.552 141.197 458.799 144.425Q457.045 147.654 457.045 151.799L457.045 151.799L457.045 153.074Q457.045 157.299 458.998 160.607Q460.951 163.915 464.458 165.749Q467.966 167.582 472.509 167.582L472.509 167.582Q476.256 167.582 479.325 166.307Q482.394 165.031 484.706 162.481L484.706 162.481L488.931 167.423Q486.061 170.771 481.796 172.525Q477.531 174.278 472.270 174.278Z" fill="#f06511"/><path d="M139.670 214.801L139.670 214.801Q137.991 214.801 136.495 214.231Q134.999 213.660 134.181 212.756L134.181 212.756L134.676 211.939Q135.451 212.735 136.796 213.284Q138.141 213.833 139.648 213.833L139.648 213.833Q141.155 213.833 142.112 213.434Q143.070 213.036 143.533 212.369Q143.996 211.702 143.996 210.884L143.996 210.884Q143.996 209.915 143.479 209.334Q142.963 208.753 142.123 208.409Q141.284 208.064 140.294 207.828Q139.304 207.591 138.292 207.322Q137.281 207.053 136.441 206.622Q135.602 206.192 135.096 205.449Q134.590 204.707 134.590 203.523L134.590 203.523Q134.590 202.447 135.150 201.543Q135.709 200.639 136.893 200.079Q138.077 199.520 139.928 199.520L139.928 199.520Q141.176 199.520 142.392 199.886Q143.608 200.252 144.469 200.876L144.469 200.876L144.060 201.758Q143.113 201.113 142.026 200.800Q140.939 200.488 139.928 200.488L139.928 200.488Q138.486 200.488 137.539 200.897Q136.592 201.306 136.140 201.984Q135.688 202.662 135.688 203.502L135.688 203.502Q135.688 204.470 136.194 205.051Q136.699 205.632 137.539 205.977Q138.378 206.321 139.390 206.558Q140.401 206.795 141.391 207.064Q142.381 207.333 143.221 207.763Q144.060 208.194 144.577 208.925Q145.093 209.657 145.093 210.819L145.093 210.819Q145.093 211.874 144.512 212.789Q143.931 213.703 142.737 214.252Q141.542 214.801 139.670 214.801ZM150.840 214.693L149.764 214.693L149.764 203.458L150.840 203.458L150.840 214.693ZM150.302 200.725L150.302 200.725Q149.936 200.725 149.678 200.467Q149.419 200.209 149.419 199.864L149.419 199.864Q149.419 199.498 149.678 199.240Q149.936 198.982 150.302 198.982L150.302 198.982Q150.689 198.982 150.937 199.229Q151.184 199.477 151.184 199.843L151.184 199.843Q151.184 200.209 150.937 200.467Q150.689 200.725 150.302 200.725ZM159.514 214.780L159.514 214.780Q158.115 214.780 156.899 214.371Q155.683 213.962 155.015 213.337L155.015 213.337L155.510 212.477Q156.156 213.036 157.232 213.434Q158.308 213.833 159.557 213.833L159.557 213.833Q161.322 213.833 162.096 213.251Q162.871 212.670 162.871 211.723L162.871 211.723Q162.871 211.035 162.473 210.636Q162.075 210.238 161.408 210.023Q160.740 209.808 159.944 209.668Q159.148 209.528 158.351 209.356Q157.555 209.184 156.888 208.861Q156.221 208.538 155.823 207.968Q155.424 207.397 155.424 206.450L155.424 206.450Q155.424 205.589 155.898 204.901Q156.371 204.212 157.318 203.792Q158.265 203.372 159.686 203.372L159.686 203.372Q160.740 203.372 161.806 203.674Q162.871 203.975 163.538 204.470L163.538 204.470L163.043 205.331Q162.333 204.793 161.451 204.556Q160.568 204.319 159.664 204.319L159.664 204.319Q158.029 204.319 157.265 204.922Q156.500 205.525 156.500 206.429L156.500 206.429Q156.500 207.139 156.899 207.559Q157.297 207.978 157.964 208.204Q158.631 208.430 159.428 208.570Q160.224 208.710 161.020 208.882Q161.817 209.054 162.484 209.367Q163.151 209.679 163.549 210.227Q163.947 210.776 163.947 211.702L163.947 211.702Q163.947 212.627 163.442 213.316Q162.936 214.005 161.946 214.392Q160.956 214.780 159.514 214.780ZM171.523 214.780L171.523 214.780Q170.038 214.780 169.253 213.962Q168.467 213.144 168.467 211.723L168.467 211.723L168.467 201.005L169.543 201.005L169.543 211.616Q169.543 212.692 170.081 213.273Q170.619 213.854 171.631 213.854L171.631 213.854Q172.686 213.854 173.374 213.230L173.374 213.230L173.826 213.983Q173.396 214.392 172.783 214.586Q172.169 214.780 171.523 214.780ZM173.116 204.384L166.401 204.384L166.401 203.458L173.116 203.458L173.116 204.384ZM182.672 214.780L182.672 214.780Q180.972 214.780 179.670 214.048Q178.368 213.316 177.625 212.025Q176.883 210.733 176.883 209.076L176.883 209.076Q176.883 207.397 177.582 206.117Q178.282 204.836 179.508 204.104Q180.735 203.372 182.263 203.372L182.263 203.372Q183.791 203.372 185.008 204.083Q186.224 204.793 186.923 206.074Q187.623 207.354 187.623 209.033L187.623 209.033Q187.623 209.097 187.612 209.173Q187.601 209.248 187.601 209.334L187.601 209.334L177.679 209.334L177.679 208.495L187.020 208.495L186.589 208.904Q186.611 207.591 186.041 206.547Q185.470 205.503 184.502 204.911Q183.533 204.319 182.263 204.319L182.263 204.319Q181.015 204.319 180.036 204.911Q179.056 205.503 178.497 206.547Q177.937 207.591 177.937 208.925L177.937 208.925L177.937 209.119Q177.937 210.496 178.551 211.562Q179.164 212.627 180.240 213.219Q181.316 213.811 182.694 213.811L182.694 213.811Q183.770 213.811 184.706 213.424Q185.642 213.036 186.288 212.240L186.288 212.240L186.912 212.950Q186.180 213.854 185.072 214.317Q183.964 214.780 182.672 214.780ZM193.326 214.693L192.250 214.693L192.250 203.458L193.283 203.458L193.283 206.558L193.132 206.213Q193.627 204.901 194.790 204.136Q195.952 203.372 197.588 203.372L197.588 203.372Q199.266 203.372 200.418 204.223Q201.569 205.073 201.871 206.751L201.871 206.751L201.505 206.601Q201.957 205.159 203.205 204.266Q204.453 203.372 206.240 203.372L206.240 203.372Q207.596 203.372 208.597 203.900Q209.597 204.427 210.157 205.492Q210.717 206.558 210.717 208.129L210.717 208.129L210.717 214.693L209.640 214.693L209.640 208.215Q209.640 206.321 208.715 205.331Q207.789 204.341 206.132 204.341L206.132 204.341Q204.862 204.341 203.937 204.879Q203.011 205.417 202.516 206.386Q202.021 207.354 202.021 208.710L202.021 208.710L202.021 214.693L200.945 214.693L200.945 208.215Q200.945 206.321 200.020 205.331Q199.094 204.341 197.437 204.341L197.437 204.341Q196.167 204.341 195.242 204.879Q194.316 205.417 193.821 206.386Q193.326 207.354 193.326 208.710L193.326 208.710L193.326 214.693ZM224.556 214.693L223.523 214.693L223.523 212.132L223.480 211.745L223.480 207.526Q223.480 205.955 222.629 205.137Q221.779 204.319 220.144 204.319L220.144 204.319Q218.981 204.319 217.981 204.718Q216.980 205.116 216.269 205.740L216.269 205.740L215.731 204.965Q216.571 204.212 217.755 203.792Q218.938 203.372 220.230 203.372L220.230 203.372Q222.317 203.372 223.437 204.427Q224.556 205.482 224.556 207.569L224.556 207.569L224.556 214.693ZM219.476 214.780L219.476 214.780Q218.228 214.780 217.313 214.381Q216.399 213.983 215.914 213.251Q215.430 212.520 215.430 211.573L215.430 211.573Q215.430 210.712 215.828 210.012Q216.226 209.313 217.152 208.871Q218.077 208.430 219.627 208.430L219.627 208.430L223.759 208.430L223.759 209.270L219.649 209.270Q217.905 209.270 217.206 209.915Q216.506 210.561 216.506 211.530L216.506 211.530Q216.506 212.606 217.324 213.251Q218.142 213.897 219.627 213.897L219.627 213.897Q221.048 213.897 222.027 213.251Q223.006 212.606 223.480 211.379L223.480 211.379L223.781 212.111Q223.329 213.337 222.242 214.059Q221.155 214.780 219.476 214.780ZM233.122 214.780L233.122 214.780Q231.723 214.780 230.507 214.371Q229.291 213.962 228.624 213.337L228.624 213.337L229.119 212.477Q229.764 213.036 230.840 213.434Q231.917 213.833 233.165 213.833L233.165 213.833Q234.930 213.833 235.705 213.251Q236.479 212.670 236.479 211.723L236.479 211.723Q236.479 211.035 236.081 210.636Q235.683 210.238 235.016 210.023Q234.349 209.808 233.552 209.668Q232.756 209.528 231.960 209.356Q231.163 209.184 230.496 208.861Q229.829 208.538 229.431 207.968Q229.033 207.397 229.033 206.450L229.033 206.450Q229.033 205.589 229.506 204.901Q229.980 204.212 230.927 203.792Q231.874 203.372 233.294 203.372L233.294 203.372Q234.349 203.372 235.414 203.674Q236.479 203.975 237.147 204.470L237.147 204.470L236.652 205.331Q235.941 204.793 235.059 204.556Q234.176 204.319 233.273 204.319L233.273 204.319Q231.637 204.319 230.873 204.922Q230.109 205.525 230.109 206.429L230.109 206.429Q230.109 207.139 230.507 207.559Q230.905 207.978 231.572 208.204Q232.239 208.430 233.036 208.570Q233.832 208.710 234.628 208.882Q235.425 209.054 236.092 209.367Q236.759 209.679 237.157 210.227Q237.556 210.776 237.556 211.702L237.556 211.702Q237.556 212.627 237.050 213.316Q236.544 214.005 235.554 214.392Q234.564 214.780 233.122 214.780ZM253.009 214.780L253.009 214.780Q251.438 214.780 250.179 214.059Q248.920 213.337 248.188 212.046Q247.456 210.755 247.456 209.076L247.456 209.076Q247.456 207.397 248.188 206.106Q248.920 204.814 250.179 204.093Q251.438 203.372 253.009 203.372L253.009 203.372Q254.516 203.372 255.710 204.061Q256.905 204.750 257.593 206.030Q258.282 207.311 258.282 209.076L258.282 209.076Q258.282 210.841 257.583 212.121Q256.883 213.402 255.689 214.091Q254.494 214.780 253.009 214.780ZM253.074 213.811L253.074 213.811Q254.365 213.811 255.387 213.219Q256.410 212.627 257.001 211.551Q257.593 210.475 257.593 209.076L257.593 209.076Q257.593 207.655 257.001 206.590Q256.410 205.525 255.387 204.933Q254.365 204.341 253.074 204.341L253.074 204.341Q251.782 204.341 250.760 204.933Q249.737 205.525 249.146 206.590Q248.554 207.655 248.554 209.076L248.554 209.076Q248.554 210.475 249.146 211.551Q249.737 212.627 250.760 213.219Q251.782 213.811 253.074 213.811ZM258.669 218.869L257.593 218.869L257.593 211.056L257.809 209.097L257.615 207.139L257.615 203.458L258.669 203.458L258.669 218.869ZM269.065 214.780L269.065 214.780Q267.623 214.780 266.568 214.252Q265.514 213.725 264.943 212.660Q264.373 211.594 264.373 210.023L264.373 210.023L264.373 203.458L265.449 203.458L265.449 209.937Q265.449 211.831 266.418 212.821Q267.386 213.811 269.151 213.811L269.151 213.811Q270.421 213.811 271.346 213.273Q272.272 212.735 272.767 211.756Q273.262 210.776 273.262 209.442L273.262 209.442L273.262 203.458L274.338 203.458L274.338 214.693L273.305 214.693L273.305 211.573L273.456 211.939Q272.961 213.251 271.809 214.015Q270.658 214.780 269.065 214.780ZM284.755 214.780L284.755 214.780Q283.055 214.780 281.753 214.048Q280.451 213.316 279.708 212.025Q278.966 210.733 278.966 209.076L278.966 209.076Q278.966 207.397 279.665 206.117Q280.365 204.836 281.591 204.104Q282.818 203.372 284.346 203.372L284.346 203.372Q285.874 203.372 287.090 204.083Q288.306 204.793 289.006 206.074Q289.705 207.354 289.705 209.033L289.705 209.033Q289.705 209.097 289.695 209.173Q289.684 209.248 289.684 209.334L289.684 209.334L279.762 209.334L279.762 208.495L289.103 208.495L288.672 208.904Q288.694 207.591 288.124 206.547Q287.553 205.503 286.585 204.911Q285.616 204.319 284.346 204.319L284.346 204.319Q283.098 204.319 282.119 204.911Q281.139 205.503 280.580 206.547Q280.020 207.591 280.020 208.925L280.020 208.925L280.020 209.119Q280.020 210.496 280.634 211.562Q281.247 212.627 282.323 213.219Q283.399 213.811 284.777 213.811L284.777 213.811Q285.853 213.811 286.789 213.424Q287.725 213.036 288.371 212.240L288.371 212.240L288.995 212.950Q288.263 213.854 287.155 214.317Q286.047 214.780 284.755 214.780ZM302.447 214.693L301.371 214.693L301.371 201.737Q301.371 200.338 302.178 199.488Q302.985 198.637 304.492 198.637L304.492 198.637Q305.116 198.637 305.718 198.820Q306.321 199.003 306.708 199.369L306.708 199.369L306.278 200.187Q305.955 199.864 305.503 199.714Q305.051 199.563 304.535 199.563L304.535 199.563Q303.502 199.563 302.964 200.133Q302.425 200.704 302.425 201.823L302.425 201.823L302.425 203.717L302.447 204.233L302.447 214.693ZM306.020 204.384L299.305 204.384L299.305 203.458L306.020 203.458L306.020 204.384ZM317.621 214.693L316.587 214.693L316.587 212.132L316.544 211.745L316.544 207.526Q316.544 205.955 315.694 205.137Q314.844 204.319 313.208 204.319L313.208 204.319Q312.046 204.319 311.045 204.718Q310.045 205.116 309.334 205.740L309.334 205.740L308.796 204.965Q309.636 204.212 310.819 203.792Q312.003 203.372 313.294 203.372L313.294 203.372Q315.382 203.372 316.501 204.427Q317.621 205.482 317.621 207.569L317.621 207.569L317.621 214.693ZM312.541 214.780L312.541 214.780Q311.293 214.780 310.378 214.381Q309.463 213.983 308.979 213.251Q308.495 212.520 308.495 211.573L308.495 211.573Q308.495 210.712 308.893 210.012Q309.291 209.313 310.217 208.871Q311.142 208.430 312.692 208.430L312.692 208.430L316.824 208.430L316.824 209.270L312.713 209.270Q310.970 209.270 310.271 209.915Q309.571 210.561 309.571 211.530L309.571 211.530Q309.571 212.606 310.389 213.251Q311.207 213.897 312.692 213.897L312.692 213.897Q314.112 213.897 315.092 213.251Q316.071 212.606 316.544 211.379L316.544 211.379L316.846 212.111Q316.394 213.337 315.307 214.059Q314.220 214.780 312.541 214.780ZM330.943 214.693L322.011 214.693L322.011 213.962L329.695 204.018L329.975 204.384L322.119 204.384L322.119 203.458L330.814 203.458L330.814 204.190L323.109 214.134L322.786 213.768L330.943 213.768L330.943 214.693ZM340.026 214.780L340.026 214.780Q338.326 214.780 337.023 214.048Q335.721 213.316 334.979 212.025Q334.236 210.733 334.236 209.076L334.236 209.076Q334.236 207.397 334.936 206.117Q335.635 204.836 336.862 204.104Q338.089 203.372 339.617 203.372L339.617 203.372Q341.145 203.372 342.361 204.083Q343.577 204.793 344.277 206.074Q344.976 207.354 344.976 209.033L344.976 209.033Q344.976 209.097 344.965 209.173Q344.955 209.248 344.955 209.334L344.955 209.334L335.033 209.334L335.033 208.495L344.373 208.495L343.943 208.904Q343.965 207.591 343.394 206.547Q342.824 205.503 341.855 204.911Q340.887 204.319 339.617 204.319L339.617 204.319Q338.369 204.319 337.389 204.911Q336.410 205.503 335.850 206.547Q335.291 207.591 335.291 208.925L335.291 208.925L335.291 209.119Q335.291 210.496 335.904 211.562Q336.518 212.627 337.594 213.219Q338.670 213.811 340.047 213.811L340.047 213.811Q341.124 213.811 342.060 213.424Q342.996 213.036 343.642 212.240L343.642 212.240L344.266 212.950Q343.534 213.854 342.426 214.317Q341.317 214.780 340.026 214.780ZM350.680 214.693L349.604 214.693L349.604 203.458L350.637 203.458L350.637 206.558L350.486 206.213Q350.981 204.901 352.143 204.136Q353.305 203.372 354.941 203.372L354.941 203.372Q356.620 203.372 357.771 204.223Q358.923 205.073 359.224 206.751L359.224 206.751L358.858 206.601Q359.310 205.159 360.559 204.266Q361.807 203.372 363.593 203.372L363.593 203.372Q364.949 203.372 365.950 203.900Q366.951 204.427 367.511 205.492Q368.070 206.558 368.070 208.129L368.070 208.129L368.070 214.693L366.994 214.693L366.994 208.215Q366.994 206.321 366.069 205.331Q365.143 204.341 363.486 204.341L363.486 204.341Q362.216 204.341 361.290 204.879Q360.365 205.417 359.870 206.386Q359.375 207.354 359.375 208.710L359.375 208.710L359.375 214.693L358.299 214.693L358.299 208.215Q358.299 206.321 357.373 205.331Q356.448 204.341 354.791 204.341L354.791 204.341Q353.521 204.341 352.595 204.879Q351.670 205.417 351.175 206.386Q350.680 207.354 350.680 208.710L350.680 208.710L350.680 214.693Z" fill="#d4d6db"/><path d="M129.909 242.759L129.909 242.759Q128.295 242.759 127.036 242.027Q125.777 241.296 125.034 240.004Q124.292 238.713 124.292 237.056L124.292 237.056Q124.292 235.377 125.034 234.096Q125.777 232.816 127.036 232.084Q128.295 231.352 129.909 231.352L129.909 231.352Q131.523 231.352 132.793 232.084Q134.063 232.816 134.795 234.096Q135.526 235.377 135.526 237.056L135.526 237.056Q135.526 238.713 134.795 240.004Q134.063 241.296 132.793 242.027Q131.523 242.759 129.909 242.759ZM129.909 241.791L129.909 241.791Q131.200 241.791 132.233 241.199Q133.267 240.607 133.848 239.531Q134.429 238.455 134.429 237.056L134.429 237.056Q134.429 235.635 133.848 234.570Q133.267 233.504 132.233 232.913Q131.200 232.321 129.909 232.321L129.909 232.321Q128.618 232.321 127.595 232.913Q126.573 233.504 125.981 234.570Q125.389 235.635 125.389 237.056L125.389 237.056Q125.389 238.455 125.981 239.531Q126.573 240.607 127.595 241.199Q128.618 241.791 129.909 241.791ZM149.818 242.759L149.818 242.759Q148.419 242.759 147.203 242.350Q145.987 241.941 145.319 241.317L145.319 241.317L145.814 240.456Q146.460 241.016 147.536 241.414Q148.612 241.812 149.861 241.812L149.861 241.812Q151.626 241.812 152.400 241.231Q153.175 240.650 153.175 239.703L153.175 239.703Q153.175 239.014 152.777 238.616Q152.379 238.218 151.712 238.003Q151.044 237.787 150.248 237.648Q149.452 237.508 148.655 237.335Q147.859 237.163 147.192 236.840Q146.525 236.518 146.126 235.947Q145.728 235.377 145.728 234.430L145.728 234.430Q145.728 233.569 146.202 232.880Q146.675 232.192 147.622 231.772Q148.569 231.352 149.990 231.352L149.990 231.352Q151.044 231.352 152.110 231.653Q153.175 231.955 153.842 232.450L153.842 232.450L153.347 233.311Q152.637 232.773 151.755 232.536Q150.872 232.299 149.968 232.299L149.968 232.299Q148.333 232.299 147.568 232.902Q146.804 233.504 146.804 234.408L146.804 234.408Q146.804 235.119 147.203 235.538Q147.601 235.958 148.268 236.184Q148.935 236.410 149.732 236.550Q150.528 236.690 151.324 236.862Q152.121 237.034 152.788 237.346Q153.455 237.658 153.853 238.207Q154.251 238.756 154.251 239.681L154.251 239.681Q154.251 240.607 153.746 241.296Q153.240 241.984 152.250 242.372Q151.260 242.759 149.818 242.759ZM163.119 242.759L163.119 242.759Q161.418 242.759 160.116 242.027Q158.814 241.296 158.072 240.004Q157.329 238.713 157.329 237.056L157.329 237.056Q157.329 235.377 158.029 234.096Q158.728 232.816 159.955 232.084Q161.182 231.352 162.710 231.352L162.710 231.352Q164.238 231.352 165.454 232.062Q166.670 232.773 167.370 234.053Q168.069 235.334 168.069 237.013L168.069 237.013Q168.069 237.077 168.058 237.153Q168.047 237.228 168.047 237.314L168.047 237.314L158.125 237.314L158.125 236.475L167.466 236.475L167.036 236.883Q167.057 235.571 166.487 234.527Q165.917 233.483 164.948 232.891Q163.980 232.299 162.710 232.299L162.710 232.299Q161.461 232.299 160.482 232.891Q159.503 233.483 158.943 234.527Q158.384 235.571 158.384 236.905L158.384 236.905L158.384 237.099Q158.384 238.476 158.997 239.542Q159.611 240.607 160.687 241.199Q161.763 241.791 163.140 241.791L163.140 241.791Q164.216 241.791 165.153 241.403Q166.089 241.016 166.735 240.220L166.735 240.220L167.359 240.930Q166.627 241.834 165.519 242.296Q164.410 242.759 163.119 242.759ZM177.259 242.759L177.259 242.759Q175.817 242.759 174.763 242.232Q173.708 241.705 173.138 240.639Q172.567 239.574 172.567 238.003L172.567 238.003L172.567 231.438L173.643 231.438L173.643 237.917Q173.643 239.811 174.612 240.801Q175.580 241.791 177.345 241.791L177.345 241.791Q178.615 241.791 179.541 241.253Q180.466 240.715 180.961 239.735Q181.456 238.756 181.456 237.422L181.456 237.422L181.456 231.438L182.532 231.438L182.532 242.673L181.499 242.673L181.499 239.552L181.650 239.918Q181.155 241.231 180.003 241.995Q178.852 242.759 177.259 242.759ZM196.285 242.673L195.209 242.673L195.209 231.438L196.242 231.438L196.242 234.559L196.092 234.215Q196.608 232.880 197.792 232.116Q198.976 231.352 200.698 231.352L200.698 231.352Q202.075 231.352 203.097 231.879Q204.120 232.407 204.690 233.472Q205.261 234.538 205.261 236.109L205.261 236.109L205.261 242.673L204.184 242.673L204.184 236.195Q204.184 234.301 203.227 233.311Q202.269 232.321 200.547 232.321L200.547 232.321Q199.234 232.321 198.266 232.859Q197.297 233.397 196.791 234.365Q196.285 235.334 196.285 236.690L196.285 236.690L196.285 242.673ZM215.548 242.759L215.548 242.759Q213.848 242.759 212.546 242.027Q211.244 241.296 210.501 240.004Q209.759 238.713 209.759 237.056L209.759 237.056Q209.759 235.377 210.458 234.096Q211.158 232.816 212.385 232.084Q213.611 231.352 215.140 231.352L215.140 231.352Q216.668 231.352 217.884 232.062Q219.100 232.773 219.799 234.053Q220.499 235.334 220.499 237.013L220.499 237.013Q220.499 237.077 220.488 237.153Q220.477 237.228 220.477 237.314L220.477 237.314L210.555 237.314L210.555 236.475L219.896 236.475L219.466 236.883Q219.487 235.571 218.917 234.527Q218.346 233.483 217.378 232.891Q216.409 232.299 215.140 232.299L215.140 232.299Q213.891 232.299 212.912 232.891Q211.933 233.483 211.373 234.527Q210.813 235.571 210.813 236.905L210.813 236.905L210.813 237.099Q210.813 238.476 211.427 239.542Q212.040 240.607 213.116 241.199Q214.192 241.791 215.570 241.791L215.570 241.791Q216.646 241.791 217.582 241.403Q218.519 241.016 219.164 240.220L219.164 240.220L219.788 240.930Q219.057 241.834 217.948 242.296Q216.840 242.759 215.548 242.759ZM229.797 246.935L229.797 246.935Q228.268 246.935 226.891 246.461Q225.514 245.988 224.653 245.148L224.653 245.148L225.234 244.330Q226.073 245.105 227.246 245.536Q228.419 245.966 229.775 245.966L229.775 245.966Q232.035 245.966 233.100 244.912Q234.166 243.857 234.166 241.597L234.166 241.597L234.166 238.476L234.381 236.797L234.209 235.119L234.209 231.438L235.242 231.438L235.242 241.468Q235.242 244.287 233.875 245.611Q232.508 246.935 229.797 246.935ZM229.495 242.264L229.495 242.264Q227.903 242.264 226.643 241.565Q225.384 240.865 224.642 239.628Q223.899 238.390 223.899 236.797L223.899 236.797Q223.899 235.183 224.642 233.956Q225.384 232.730 226.643 232.041Q227.903 231.352 229.495 231.352L229.495 231.352Q231.023 231.352 232.239 232.009Q233.455 232.665 234.166 233.881Q234.876 235.097 234.876 236.797L234.876 236.797Q234.876 238.476 234.166 239.703Q233.455 240.930 232.239 241.597Q231.023 242.264 229.495 242.264ZM229.581 241.296L229.581 241.296Q230.937 241.296 231.970 240.725Q233.003 240.155 233.595 239.133Q234.187 238.110 234.187 236.797L234.187 236.797Q234.187 235.463 233.595 234.451Q233.003 233.440 231.970 232.880Q230.937 232.321 229.581 232.321L229.581 232.321Q228.268 232.321 227.225 232.880Q226.181 233.440 225.589 234.451Q224.997 235.463 224.997 236.797L224.997 236.797Q224.997 238.110 225.589 239.133Q226.181 240.155 227.225 240.725Q228.268 241.296 229.581 241.296ZM245.487 242.759L245.487 242.759Q243.873 242.759 242.613 242.027Q241.354 241.296 240.612 240.004Q239.869 238.713 239.869 237.056L239.869 237.056Q239.869 235.377 240.612 234.096Q241.354 232.816 242.613 232.084Q243.873 231.352 245.487 231.352L245.487 231.352Q247.101 231.352 248.371 232.084Q249.641 232.816 250.372 234.096Q251.104 235.377 251.104 237.056L251.104 237.056Q251.104 238.713 250.372 240.004Q249.641 241.296 248.371 242.027Q247.101 242.759 245.487 242.759ZM245.487 241.791L245.487 241.791Q246.778 241.791 247.811 241.199Q248.844 240.607 249.425 239.531Q250.007 238.455 250.007 237.056L250.007 237.056Q250.007 235.635 249.425 234.570Q248.844 233.504 247.811 232.913Q246.778 232.321 245.487 232.321L245.487 232.321Q244.195 232.321 243.173 232.913Q242.151 233.504 241.559 234.570Q240.967 235.635 240.967 237.056L240.967 237.056Q240.967 238.455 241.559 239.531Q242.151 240.607 243.173 241.199Q244.195 241.791 245.487 241.791ZM245.422 229.609L244.260 229.609L247.252 227.069L248.801 227.069L245.422 229.609ZM260.187 242.759L260.187 242.759Q258.551 242.759 257.270 242.027Q255.990 241.296 255.247 240.004Q254.505 238.713 254.505 237.056L254.505 237.056Q254.505 235.377 255.247 234.086Q255.990 232.794 257.270 232.073Q258.551 231.352 260.187 231.352L260.187 231.352Q261.543 231.352 262.651 231.869Q263.760 232.385 264.448 233.418L264.448 233.418L263.652 233.999Q263.049 233.139 262.145 232.730Q261.241 232.321 260.187 232.321L260.187 232.321Q258.874 232.321 257.830 232.913Q256.786 233.504 256.194 234.570Q255.602 235.635 255.602 237.056L255.602 237.056Q255.602 238.476 256.194 239.542Q256.786 240.607 257.830 241.199Q258.874 241.791 260.187 241.791L260.187 241.791Q261.241 241.791 262.145 241.382Q263.049 240.973 263.652 240.112L263.652 240.112L264.448 240.693Q263.760 241.726 262.651 242.243Q261.543 242.759 260.187 242.759ZM270.044 242.673L268.968 242.673L268.968 231.438L270.044 231.438L270.044 242.673ZM269.506 228.705L269.506 228.705Q269.140 228.705 268.882 228.447Q268.624 228.188 268.624 227.844L268.624 227.844Q268.624 227.478 268.882 227.220Q269.140 226.961 269.506 226.961L269.506 226.961Q269.894 226.961 270.141 227.209Q270.389 227.456 270.389 227.822L270.389 227.822Q270.389 228.188 270.141 228.447Q269.894 228.705 269.506 228.705ZM280.268 242.759L280.268 242.759Q278.653 242.759 277.394 242.027Q276.135 241.296 275.393 240.004Q274.650 238.713 274.650 237.056L274.650 237.056Q274.650 235.377 275.393 234.096Q276.135 232.816 277.394 232.084Q278.653 231.352 280.268 231.352L280.268 231.352Q281.882 231.352 283.152 232.084Q284.422 232.816 285.153 234.096Q285.885 235.377 285.885 237.056L285.885 237.056Q285.885 238.713 285.153 240.004Q284.422 241.296 283.152 242.027Q281.882 242.759 280.268 242.759ZM280.268 241.791L280.268 241.791Q281.559 241.791 282.592 241.199Q283.625 240.607 284.206 239.531Q284.787 238.455 284.787 237.056L284.787 237.056Q284.787 235.635 284.206 234.570Q283.625 233.504 282.592 232.913Q281.559 232.321 280.268 232.321L280.268 232.321Q278.976 232.321 277.954 232.913Q276.932 233.504 276.340 234.570Q275.748 235.635 275.748 237.056L275.748 237.056Q275.748 238.455 276.340 239.531Q276.932 240.607 277.954 241.199Q278.976 241.791 280.268 241.791ZM301.898 242.759L301.898 242.759Q300.198 242.759 298.896 242.027Q297.594 241.296 296.851 240.004Q296.108 238.713 296.108 237.056L296.108 237.056Q296.108 235.377 296.808 234.096Q297.507 232.816 298.734 232.084Q299.961 231.352 301.489 231.352L301.489 231.352Q303.017 231.352 304.233 232.062Q305.449 232.773 306.149 234.053Q306.848 235.334 306.848 237.013L306.848 237.013Q306.848 237.077 306.838 237.153Q306.827 237.228 306.827 237.314L306.827 237.314L296.905 237.314L296.905 236.475L306.246 236.475L305.815 236.883Q305.837 235.571 305.266 234.527Q304.696 233.483 303.728 232.891Q302.759 232.299 301.489 232.299L301.489 232.299Q300.241 232.299 299.262 232.891Q298.282 233.483 297.723 234.527Q297.163 235.571 297.163 236.905L297.163 236.905L297.163 237.099Q297.163 238.476 297.777 239.542Q298.390 240.607 299.466 241.199Q300.542 241.791 301.920 241.791L301.920 241.791Q302.996 241.791 303.932 241.403Q304.868 241.016 305.514 240.220L305.514 240.220L306.138 240.930Q305.406 241.834 304.298 242.296Q303.190 242.759 301.898 242.759ZM315.414 242.673L314.317 242.673L309.259 231.438L310.400 231.438L315.135 242.071L314.618 242.071L319.396 231.438L320.494 231.438L315.414 242.673ZM328.522 242.759L328.522 242.759Q326.908 242.759 325.649 242.027Q324.390 241.296 323.647 240.004Q322.904 238.713 322.904 237.056L322.904 237.056Q322.904 235.377 323.647 234.096Q324.390 232.816 325.649 232.084Q326.908 231.352 328.522 231.352L328.522 231.352Q330.136 231.352 331.406 232.084Q332.676 232.816 333.408 234.096Q334.139 235.377 334.139 237.056L334.139 237.056Q334.139 238.713 333.408 240.004Q332.676 241.296 331.406 242.027Q330.136 242.759 328.522 242.759ZM328.522 241.791L328.522 241.791Q329.813 241.791 330.846 241.199Q331.879 240.607 332.461 239.531Q333.042 238.455 333.042 237.056L333.042 237.056Q333.042 235.635 332.461 234.570Q331.879 233.504 330.846 232.913Q329.813 232.321 328.522 232.321L328.522 232.321Q327.231 232.321 326.208 232.913Q325.186 233.504 324.594 234.570Q324.002 235.635 324.002 237.056L324.002 237.056Q324.002 238.455 324.594 239.531Q325.186 240.607 326.208 241.199Q327.231 241.791 328.522 241.791ZM339.843 242.673L338.767 242.673L338.767 226.703L339.843 226.703L339.843 242.673ZM350.238 242.759L350.238 242.759Q348.796 242.759 347.742 242.232Q346.687 241.705 346.117 240.639Q345.546 239.574 345.546 238.003L345.546 238.003L345.546 231.438L346.623 231.438L346.623 237.917Q346.623 239.811 347.591 240.801Q348.560 241.791 350.325 241.791L350.325 241.791Q351.594 241.791 352.520 241.253Q353.445 240.715 353.940 239.735Q354.435 238.756 354.435 237.422L354.435 237.422L354.435 231.438L355.512 231.438L355.512 242.673L354.478 242.673L354.478 239.552L354.629 239.918Q354.134 241.231 352.983 241.995Q351.831 242.759 350.238 242.759ZM362.442 242.673L361.366 242.673L361.366 231.438L362.442 231.438L362.442 242.673ZM361.904 228.705L361.904 228.705Q361.538 228.705 361.280 228.447Q361.021 228.188 361.021 227.844L361.021 227.844Q361.021 227.478 361.280 227.220Q361.538 226.961 361.904 226.961L361.904 226.961Q362.291 226.961 362.539 227.209Q362.786 227.456 362.786 227.822L362.786 227.822Q362.786 228.188 362.539 228.447Q362.291 228.705 361.904 228.705ZM369.351 242.673L368.275 242.673L368.275 231.438L369.308 231.438L369.308 234.516L369.200 234.172Q369.674 232.816 370.793 232.084Q371.912 231.352 373.591 231.352L373.591 231.352L373.591 232.407Q373.526 232.407 373.462 232.396Q373.397 232.385 373.333 232.385L373.333 232.385Q371.460 232.385 370.405 233.558Q369.351 234.731 369.351 236.819L369.351 236.819L369.351 242.673ZM377.917 242.759L377.917 242.759Q377.551 242.759 377.282 242.490Q377.013 242.221 377.013 241.834L377.013 241.834Q377.013 241.446 377.282 241.188Q377.551 240.930 377.917 240.930L377.917 240.930Q378.283 240.930 378.552 241.188Q378.821 241.446 378.821 241.834L378.821 241.834Q378.821 242.221 378.552 242.490Q378.283 242.759 377.917 242.759Z" fill="#d4d6db"/></svg>
