<svg xmlns="http://www.w3.org/2000/svg" width="613" height="190" viewBox="0 0 613 190"><g transform="translate(20 20)"><rect x="17" y="0" width="28" height="100" fill="#FFFFFF"/><rect x="104" y="0" width="28" height="100" fill="#FFFFFF"/><path d="M0 81.5A90.6 90.6 0 0 1 148 81.5A148.2 148.2 0 0 0 0 81.5Z" fill="#E31B23"/><g transform="translate(163 0)"><g><rect x="0" y="0" width="85" height="20" fill="#E31B23"/><path d="M0 40H74V60H26V80H85V100H0Z" fill="#FFFFFF"/></g></g><g transform="translate(266 0)"><g><rect x="0" y="0" width="85" height="20" fill="#E31B23"/><path d="M0 40H74V60H26V80H85V100H0Z" fill="#FFFFFF"/></g></g><g transform="translate(370 0)"><path d="M87 0H21A21 21 0 0 0 0 21V79A21 21 0 0 0 21 100H84V80H36A11 11 0 0 1 25 69V31A11 11 0 0 1 36 20H87Z" fill="#FFFFFF"/></g><g transform="translate(462 0)"><path d="M0 100L43.5 0H67.5L111 100H87L55.5 27.9L24 100Z" fill="#FFFFFF"/></g><path d="M243.93 150L239.71 150L239.71 126L246.19 126L250.75 138.39Q250.99 139.08 251.29 140.17Q251.58 141.25 251.90 142.51Q252.21 143.77 252.49 144.97Q252.78 146.17 252.97 147.08L252.97 147.08L252.10 147.08Q252.29 146.18 252.57 145.00Q252.86 143.81 253.17 142.55Q253.48 141.29 253.78 140.19Q254.08 139.10 254.31 138.39L254.31 138.39L258.82 126L265.31 126L265.31 150L261.02 150L261.02 137.89Q261.02 137.11 261.04 136.02Q261.05 134.92 261.09 133.67Q261.12 132.41 261.15 131.13Q261.18 129.85 261.18 128.69L261.18 128.69L261.49 128.69Q261.17 129.96 260.79 131.29Q260.41 132.62 260.04 133.87Q259.67 135.12 259.34 136.16Q259.01 137.21 258.77 137.89L258.77 137.89L254.34 150L250.68 150L246.19 137.89Q245.95 137.21 245.62 136.19Q245.29 135.17 244.91 133.92Q244.53 132.68 244.15 131.34Q243.77 129.99 243.40 128.69L243.40 128.69L243.76 128.69Q243.77 129.77 243.80 131.03Q243.84 132.30 243.86 133.57Q243.88 134.84 243.91 135.96Q243.93 137.08 243.93 137.89L243.93 137.89L243.93 150ZM279.17 150L274.47 150L282.84 126L288.30 126L296.87 150L292.15 150L287.88 137.53Q287.26 135.60 286.58 133.16Q285.90 130.72 285.08 127.61L285.08 127.61L285.98 127.61Q285.18 130.75 284.53 133.21Q283.87 135.66 283.29 137.53L283.29 137.53L279.17 150ZM291.99 144.06L279.35 144.06L279.35 140.59L291.99 140.59L291.99 144.06ZM315.28 137.37L309.12 144.09L309.12 140.01Q309.90 138.76 310.65 137.65Q311.39 136.55 312.24 135.47Q313.09 134.39 314.13 133.18L314.13 133.18L320.43 126L325.78 126L315.60 137.48L315.28 137.37ZM310.32 150L306.01 150L306.01 126L310.32 126L310.32 133.12L310.23 138.90L310.32 141.01L310.32 150ZM325.94 150L320.87 150L313.23 138.71L315.94 135.47L325.94 150ZM350.80 150L335.15 150L335.15 126L350.74 126L350.74 129.62L339.45 129.62L339.45 136.10L349.90 136.10L349.90 139.68L339.45 139.68L339.45 146.38L350.80 146.38L350.80 150Z" fill="#c8306f"/></g></svg>
