<svg xmlns="http://www.w3.org/2000/svg" width="100" height="100" viewBox="0 0 100 100"><defs><linearGradient id="g-service" x1="0" y1="0" x2="0.35" y2="1"><stop offset="0" stop-color="#3087a0"/><stop offset="1" stop-color="#0b5f76"/></linearGradient><linearGradient id="g-service-s" x1="0" y1="0" x2="0" y2="1"><stop offset="0" stop-color="#fff" stop-opacity="0.16"/><stop offset="0.5" stop-color="#fff" stop-opacity="0"/></linearGradient></defs><rect width="100" height="100" rx="22.5" fill="url(#g-service)"/><rect width="100" height="100" rx="22.5" fill="url(#g-service-s)"/><g transform="translate(21 15) scale(2.3333333333333335)" fill="none" stroke="#FFFFFF" stroke-width="1.9" stroke-linecap="round" stroke-linejoin="round"><path d="M14.7 6.3a1 1 0 0 0 0 1.4l1.6 1.6a1 1 0 0 0 1.4 0l3.106-3.105c.32-.322.863-.22.983.218a6 6 0 0 1-8.259 7.057l-7.91 7.91a1 1 0 0 1-2.999-3l7.91-7.91a6 6 0 0 1 7.057-8.259c.438.12.54.662.219.984z" /></g><g transform="translate(66 74) scale(0.2)" opacity="0.95"><rect x="17" y="0" width="28" height="100" fill="#FFFFFF"/><rect x="104" y="0" width="28" height="100" fill="#FFFFFF"/><path d="M0 81.5A90.6 90.6 0 0 1 148 81.5A148.2 148.2 0 0 0 0 81.5Z" fill="#FFFFFF"/></g></svg>
