<svg xmlns="http://www.w3.org/2000/svg" width="100" height="100" viewBox="0 0 100 100"><defs><linearGradient id="g-beauty" x1="0" y1="0" x2="0.35" y2="1"><stop offset="0" stop-color="#d04d83"/><stop offset="1" stop-color="#a4275b"/></linearGradient><linearGradient id="g-beauty-s" x1="0" y1="0" x2="0" y2="1"><stop offset="0" stop-color="#fff" stop-opacity="0.16"/><stop offset="0.5" stop-color="#fff" stop-opacity="0"/></linearGradient></defs><rect width="100" height="100" rx="22.5" fill="url(#g-beauty)"/><rect width="100" height="100" rx="22.5" fill="url(#g-beauty-s)"/><g transform="translate(21 15) scale(2.3333333333333335)" fill="none" stroke="#FFFFFF" stroke-width="1.9" stroke-linecap="round" stroke-linejoin="round"><path d="M11.017 2.814a1 1 0 0 1 1.966 0l1.051 5.558a2 2 0 0 0 1.594 1.594l5.558 1.051a1 1 0 0 1 0 1.966l-5.558 1.051a2 2 0 0 0-1.594 1.594l-1.051 5.558a1 1 0 0 1-1.966 0l-1.051-5.558a2 2 0 0 0-1.594-1.594l-5.558-1.051a1 1 0 0 1 0-1.966l5.558-1.051a2 2 0 0 0 1.594-1.594z" />
  <path d="M20 2v4" />
  <path d="M22 4h-4" />
  <circle cx="4" cy="20" r="2" /></g><g transform="translate(66 74) scale(0.2)" opacity="0.95"><rect x="17" y="0" width="28" height="100" fill="#FFFFFF"/><rect x="104" y="0" width="28" height="100" fill="#FFFFFF"/><path d="M0 81.5A90.6 90.6 0 0 1 148 81.5A148.2 148.2 0 0 0 0 81.5Z" fill="#FFFFFF"/></g></svg>
