<svg xmlns="http://www.w3.org/2000/svg" width="100" height="100" viewBox="0 0 100 100"><rect width="100" height="100" rx="22.5" fill="#1e3a8a"/><path d="M38.53 66.60L38.53 66.60Q34.48 66.60 31 65.28Q27.52 63.95 24.98 61.50Q22.43 59.05 21 55.75Q19.57 52.45 19.57 48.50L19.57 48.50Q19.57 44.55 21 41.25Q22.43 37.95 25 35.50Q27.58 33.05 31.02 31.73Q34.48 30.40 38.58 30.40L38.58 30.40Q43.13 30.40 46.80 31.98Q50.48 33.55 52.98 36.60L52.98 36.60L47.78 41.40Q45.98 39.35 43.78 38.33Q41.58 37.30 38.98 37.30L38.98 37.30Q36.53 37.30 34.48 38.10Q32.42 38.90 30.93 40.40Q29.43 41.90 28.60 43.95Q27.77 46 27.77 48.50L27.77 48.50Q27.77 51 28.60 53.05Q29.43 55.10 30.93 56.60Q32.42 58.10 34.48 58.90Q36.53 59.70 38.98 59.70L38.98 59.70Q41.58 59.70 43.78 58.67Q45.98 57.65 47.78 55.55L47.78 55.55L52.98 60.35Q50.48 63.40 46.80 65Q43.13 66.60 38.53 66.60ZM64.48 66.40L64.48 66.40Q61.03 66.40 57.85 65.58Q54.68 64.75 52.83 63.50L52.83 63.50L55.43 57.90Q57.28 59.05 59.80 59.77Q62.33 60.50 64.78 60.50L64.78 60.50Q67.48 60.50 68.60 59.85Q69.73 59.20 69.73 58.05L69.73 58.05Q69.73 57.10 68.85 56.63Q67.98 56.15 66.53 55.90Q65.08 55.65 63.35 55.40Q61.63 55.15 59.88 54.73Q58.13 54.30 56.68 53.45Q55.23 52.60 54.35 51.15Q53.48 49.70 53.48 47.40L53.48 47.40Q53.48 44.85 54.95 42.90Q56.43 40.95 59.23 39.83Q62.03 38.70 65.93 38.70L65.93 38.70Q68.68 38.70 71.53 39.30Q74.38 39.90 76.28 41.05L76.28 41.05L73.68 46.60Q71.73 45.45 69.75 45.02Q67.78 44.60 65.93 44.60L65.93 44.60Q63.33 44.60 62.13 45.30Q60.93 46 60.93 47.10L60.93 47.10Q60.93 48.10 61.80 48.60Q62.68 49.10 64.13 49.40Q65.58 49.70 67.30 49.92Q69.03 50.15 70.78 50.60Q72.53 51.05 73.95 51.88Q75.38 52.70 76.28 54.13Q77.18 55.55 77.18 57.85L77.18 57.85Q77.18 60.35 75.68 62.27Q74.18 64.20 71.35 65.30Q68.53 66.40 64.48 66.40Z" fill="#ffffff"/><g transform="translate(66 75) scale(0.2)" opacity="0.92"><path d="M104.26 23.81A30 30 0 1 0 114.07 74.29" fill="none" stroke="#ffffff" stroke-width="17" stroke-linecap="round"/><rect x="10" y="6" width="17" height="88" rx="1.5" fill="#ffffff"/><rect x="62" y="6" width="17" height="88" rx="1.5" fill="#ffffff"/><path d="M14.79 69.41L16.68 69.2L18.58 68.81L20.5 68.29L22.43 67.68L24.39 66.97L26.36 66.18L28.34 65.31L30.34 64.38L32.35 63.38L34.38 62.33L36.41 61.22L38.46 60.07L40.51 58.88L42.58 57.66L44.65 56.41L46.73 55.13L48.81 53.83L50.89 52.52L52.97 51.21L55.05 49.89L57.13 48.57L59.2 47.27L61.27 45.97L63.32 44.7L65.37 43.44L67.4 42.22L69.42 41.04L71.41 39.89L73.39 38.79L75.34 37.74L77.27 36.74L79.16 35.81L81.02 34.94L82.83 34.14L84.61 33.42L86.33 32.79L88 32.23L89.62 31.76L91.16 31.38L92.63 31.1L94.03 30.9L95.34 30.8L96.55 30.78L97.68 30.84L98.72 30.98L99.67 31.19L100.54 31.46L101.35 31.8L107.17 15.82L104.88 15.19L102.59 14.76L100.29 14.53L98.01 14.48L95.76 14.59L93.53 14.85L91.33 15.25L89.16 15.76L87.01 16.39L84.88 17.12L82.77 17.93L80.68 18.83L78.6 19.8L76.52 20.85L74.46 21.95L72.4 23.12L70.35 24.34L68.3 25.6L66.25 26.91L64.22 28.26L62.18 29.64L60.15 31.05L58.13 32.49L56.11 33.94L54.1 35.41L52.1 36.89L50.11 38.38L48.13 39.86L46.15 41.34L44.2 42.81L42.25 44.27L40.33 45.71L38.42 47.12L36.53 48.51L34.66 49.86L32.81 51.18L30.99 52.45L29.2 53.68L27.43 54.85L25.7 55.97L23.99 57.03L22.33 58.02L20.7 58.94L19.11 59.8L17.56 60.59L16.06 61.3L14.61 61.95L13.21 62.59Z" fill="#ffffff"/><path d="M104.26 23.81A30 30 0 0 1 114.07 29.71" fill="none" stroke="#ffffff" stroke-width="17" stroke-linecap="round"/></g></svg>
